<svg preserveAspectRatio="none" overflow="visible" style="display: block;" width="159.999" height="20.0009" viewBox="0 0 159.999 20.0009" fill="none" xmlns="http://www.w3.org/2000/svg">
<g id="Group">
<g id="Group_2">
<path id="Vector" d="M0 20V0H11.5052C13.9598 0 16.0782 0.388031 17.8614 1.16237C19.6445 1.93757 21.0156 3.07148 21.9746 4.56325C22.9327 6.05588 23.4131 7.86755 23.4131 9.99914C23.4131 12.1307 22.9336 13.9433 21.9746 15.435C21.0156 16.9277 19.6445 18.0616 17.8614 18.8359C16.0782 19.6111 13.9589 19.9991 11.5052 19.9991H0V20ZM7.10446 15.0289H11.0735C11.8592 15.0289 12.5589 14.9125 13.1731 14.6797C13.7866 14.4468 14.3139 14.1226 14.755 13.7061C15.196 13.2896 15.5313 12.7956 15.7617 12.2239C15.9921 11.6522 16.1064 11.0175 16.1064 10.3199V9.62232C16.1064 8.92472 15.9912 8.29525 15.7617 7.73303C15.5313 7.17082 15.196 6.6819 14.755 6.26541C14.313 5.84893 13.7866 5.52902 13.1731 5.30568C12.5589 5.08321 11.8592 4.97111 11.0735 4.97111H7.10446V15.0289Z" fill="#01FE8A"/>
<path id="Vector_2" d="M23.9591 20V4.06901e-05H45.1001V4.97115H31.0925V7.55803H43.1727V12.267H31.0925V15.0289H45.3304V20H23.9599H23.9591Z" fill="#01FE8A"/>
<path id="Vector_3" d="M45.8185 20V4.06901e-05H52.923V14.5055H65.7514V20H45.8185Z" fill="#01FE8A"/>
<path id="Vector_4" d="M65.55 20V4.06901e-05H72.6545V20H65.55Z" fill="#01FE8A"/>
<path id="Vector_5" d="M81.7716 20L72.1358 4.06901e-05H80.0166L83.641 8.40135C83.7749 8.69194 83.9473 9.1136 84.1589 9.66547C84.3696 10.2182 84.5906 10.7994 84.8201 11.4099C85.0504 12.0204 85.2518 12.5774 85.4241 13.0819H85.6255C85.779 12.6361 85.9608 12.1221 86.1724 11.541C86.3831 10.9598 86.599 10.3881 86.8191 9.82586C87.0392 9.26364 87.2363 8.78938 87.4086 8.40135L91.091 4.06901e-05H98.6553L89.0194 20H81.7708H81.7716Z" fill="#01FE8A"/>
<path id="Vector_6" d="M98.1374 20V4.06901e-05H119.278V4.97115H105.271V7.55803H117.351V12.267H105.271V15.0289H119.509V20H98.1382H98.1374Z" fill="#01FE8A"/>
<path id="Vector_7" d="M119.997 20V4.06901e-05H137.14C138.616 4.06901e-05 139.848 0.310466 140.836 0.930454C141.823 1.55044 142.566 2.36445 143.065 3.37246C143.563 4.38048 143.813 5.46525 143.813 6.62848C143.813 7.96589 143.52 9.15327 142.935 10.1897C142.35 11.2271 141.493 12.0557 140.361 12.6749L144.273 20.0009H136.248L133.257 13.751H127.101V20.0009H119.997V20ZM127.101 8.77904H134.637C135.174 8.77904 135.625 8.60916 135.99 8.27028C136.354 7.9314 136.536 7.46145 136.536 6.86044C136.536 6.45343 136.45 6.10938 136.277 5.82827C136.105 5.54716 135.879 5.33418 135.602 5.18845C135.323 5.04272 135.002 4.97029 134.637 4.97029H127.101V8.77817V8.77904Z" fill="#01FE8A"/>
</g>
<path id="Vector_8" d="M152.53 15.8628V11.3918H147.814V8.6083H152.53V4.13732H155.284V8.6083H159.999V11.3918H155.284V15.8628H152.53Z" fill="#01FE8A"/>
</g>
</svg>
